HIERARCHY
ROOT Hips
{
 OFFSET 0.000000 0.000000 0.000000
 CHANNELS 6 Xposition Yposition Zposition Yrotation Xrotation Zrotation
 JOINT Chest
 {
  OFFSET 0.000000 9.585900 0.002600
  CHANNELS 3 Yrotation Xrotation Zrotation
  JOINT Chest2
  {
   OFFSET 0.000000 9.601200 -0.005300
   CHANNELS 3 Yrotation Xrotation Zrotation
   JOINT Chest3
   {
    OFFSET 0.000000 9.561800 0.000000
    CHANNELS 3 Yrotation Xrotation Zrotation
    JOINT Chest4
    {
     OFFSET 0.000000 9.552100 0.000000
     CHANNELS 3 Yrotation Xrotation Zrotation
     JOINT Neck
     {
      OFFSET 0.000000 14.453000 0.000000
      CHANNELS 3 Yrotation Xrotation Zrotation
      JOINT Head
      {
       OFFSET 0.000000 8.936500 -0.011300
       CHANNELS 3 Yrotation Xrotation Zrotation
       End Site
       {
        OFFSET 0.000000 17.073600 -0.006000
       }
      }
     }
     JOINT RightCollar
     {
      OFFSET -2.921100 9.558500 0.000000
      CHANNELS 3 Yrotation Xrotation Zrotation
      JOINT RightShoulder
      {
       OFFSET -13.519700 0.000000 0.000000
       CHANNELS 3 Yrotation Xrotation Zrotation
       JOINT RightElbow
       {
        OFFSET 0.000000 -29.696600 0.000000
        CHANNELS 3 Yrotation Xrotation Zrotation
        JOINT RightWrist
        {
         OFFSET 0.000000 -24.004700 0.000000
         CHANNELS 3 Yrotation Xrotation Zrotation
         End Site
         {
          OFFSET 0.000000 -17.728500 0.000000
         }
        }
       }
      }
     }
     JOINT LeftCollar
     {
      OFFSET 2.921100 9.558500 0.000000
      CHANNELS 3 Yrotation Xrotation Zrotation
      JOINT LeftShoulder
      {
       OFFSET 13.519700 0.000000 0.000000
       CHANNELS 3 Yrotation Xrotation Zrotation
       JOINT LeftElbow
       {
        OFFSET 0.000000 -29.696600 0.000000
        CHANNELS 3 Yrotation Xrotation Zrotation
        JOINT LeftWrist
        {
         OFFSET 0.000000 -24.004700 0.000000
         CHANNELS 3 Yrotation Xrotation Zrotation
         End Site
         {
          OFFSET 0.000000 -17.728500 0.000000
         }
        }
       }
      }
     }
    }
   }
  }
 }
 JOINT RightHip
 {
  OFFSET -7.771700 -0.012900 -0.001300
  CHANNELS 3 Yrotation Xrotation Zrotation
  JOINT RightKnee
  {
   OFFSET 0.000000 -40.869800 0.001200
   CHANNELS 3 Yrotation Xrotation Zrotation
   JOINT RightAnkle
   {
    OFFSET 0.000000 -39.717900 0.002100
    CHANNELS 3 Yrotation Xrotation Zrotation
    JOINT RightToe
    {
     OFFSET 0.000000 -4.965400 11.033500
     CHANNELS 3 Yrotation Xrotation Zrotation
     End Site
     {
      OFFSET 0.000000 -1.423100 5.872300
     }
    }
   }
  }
 }
 JOINT LeftHip
 {
  OFFSET 7.771700 -0.012900 -0.001300
  CHANNELS 3 Yrotation Xrotation Zrotation
  JOINT LeftKnee
  {
   OFFSET 0.000000 -40.869800 0.001200
   CHANNELS 3 Yrotation Xrotation Zrotation
   JOINT LeftAnkle
   {
    OFFSET 0.000000 -39.717900 0.002100
    CHANNELS 3 Yrotation Xrotation Zrotation
    JOINT LeftToe
    {
     OFFSET 0.000000 -4.965400 11.033500
     CHANNELS 3 Yrotation Xrotation Zrotation
     End Site
     {
      OFFSET 0.000000 -1.423100 5.872300
     }
    }
   }
  }
 }
}
MOTION
Frames: 6
Frame Time: 0.008333
-44.657770 55.096359 44.190048 -176.925444 -32.408214 -11.237383 0.084106 14.477090 6.097400 -0.019282 8.373962 2.237596 0.025883 10.447096 2.798180 -0.015890 8.420106 2.248922 0.204021 21.937977 0.649092 0.070254 -2.310496 0.648444 2.180020 4.406116 -2.454012 -17.117879 -8.980129 4.317802 144.159446 -82.557138 -126.569495 12.536715 -6.320964 -14.875870 -8.696391 4.643070 -3.962684 4.178202 -2.848146 -1.006673 -97.441743 -70.279969 97.938166 8.799687 -22.064623 11.410838 -16.757526 -34.174372 3.813393 40.630639 85.588602 36.669494 0.910644 -18.325213 2.881331 -0.756785 1.814726 -0.331019 -15.239538 -45.390450 15.446209 171.584000 79.843716 165.619918 -2.104947 -16.562793 2.861365 -0.920134 -1.864053 -0.392849
-44.664569 55.097719 44.188485 -176.912294 -32.405662 -11.233293 0.072794 14.485014 6.089930 -0.019632 8.379097 2.238835 0.027240 10.473358 2.805614 -0.015143 8.434143 2.248088 0.047376 21.941333 0.604819 -0.087328 -2.306752 0.636803 2.157365 4.417120 -2.447733 -17.120503 -8.890587 4.342229 147.408198 -83.222428 -129.690211 12.494421 -5.354143 -13.742461 -8.705604 4.648862 -3.962518 4.192611 -2.860485 -1.005641 -97.719009 -70.375435 98.195685 8.846002 -21.830343 11.030742 -16.759839 -34.176212 3.799619 40.650881 85.588493 36.684643 0.907742 -18.331461 2.884964 -0.757094 1.817336 -0.329662 -15.216396 -45.392960 15.426695 171.617319 79.848629 165.646518 -2.115306 -16.571667 2.879182 -0.917751 -1.856239 -0.390919
-44.671214 55.099115 44.187402 -176.901278 -32.401131 -11.231514 0.084364 14.518417 6.104064 -0.031628 8.369309 2.232808 0.024963 10.487339 2.806395 -0.017197 8.448065 2.247873 -0.117069 21.944400 0.549901 -0.250848 -2.303126 0.615494 2.108420 4.466221 -2.432519 -17.107046 -8.842752 4.372038 151.865025 -83.904889 -134.020315 12.489167 -4.253208 -12.452734 -8.707223 4.650823 -3.966928 4.183175 -2.869004 -1.003640 -98.072213 -70.480320 98.548233 8.941025 -21.584505 10.558726 -16.757645 -34.179473 3.784516 40.669359 85.587545 36.706606 0.906969 -18.337137 2.881709 -0.755258 1.820126 -0.330316 -15.197924 -45.396358 15.414077 171.662310 79.854298 165.683609 -2.123462 -16.581334 2.896168 -0.915066 -1.847633 -0.388970
-44.678888 55.100879 44.185904 -176.881340 -32.398415 -11.230132 0.077007 14.539588 6.102049 -0.035184 8.379445 2.233119 0.024150 10.501436 2.808506 -0.019576 8.445140 2.245652 -0.287908 21.962168 0.486337 -0.418946 -2.299065 0.585016 2.080137 4.468471 -2.433714 -17.105787 -8.731570 4.405536 157.845387 -84.564713 -139.888681 12.536958 -3.033195 -11.021861 -8.709575 4.669096 -3.970811 4.172984 -2.905384 -1.003484 -98.430137 -70.607822 98.904137 9.087523 -21.349525 9.998153 -16.754093 -34.180715 3.762354 40.672742 85.588473 36.713416 0.905898 -18.342299 2.882550 -0.753739 1.821207 -0.328504 -15.182849 -45.397228 15.394760 171.711973 79.861389 165.724856 -2.135296 -16.590363 2.911569 -0.908011 -1.838688 -0.384408
-44.685979 55.102799 44.184831 -176.867830 -32.394308 -11.229528 0.074243 14.558398 6.104292 -0.028882 8.415897 2.239190 0.016689 10.489603 2.804260 -0.024650 8.455099 2.245100 -0.464255 21.965344 0.412018 -0.590868 -2.294655 0.545774 2.050865 4.450234 -2.440680 -17.095394 -8.616473 4.441984 165.483200 -85.155559 -147.422467 12.640519 -1.721756 -9.490638 -8.701972 4.669843 -3.975154 4.150130 -2.937518 -1.000304 -98.868185 -70.768033 99.343628 9.273044 -21.138380 9.343692 -16.754537 -34.183011 3.747642 40.672657 85.587636 36.714845 0.906724 -18.345598 2.878056 -0.753195 1.822583 -0.321099 -15.172047 -45.399972 15.379468 171.731633 79.865962 165.740990 -2.149606 -16.596255 2.921154 -0.900338 -1.833823 -0.385203
-44.693570 55.105207 44.183386 -176.854506 -32.392991 -11.225892 0.070582 14.578440 6.102450 -0.030785 8.426430 2.238406 0.018261 10.549138 2.809230 -0.028780 8.433695 2.240374 -0.646101 21.952752 0.328113 -0.766843 -2.291284 0.498805 2.036287 4.398338 -2.447957 -17.101806 -8.489094 4.474694 174.699389 -85.638208 -156.524261 12.794626 -0.343902 -7.905149 -8.701613 4.649023 -3.982516 4.107853 -2.877230 -0.992919 -99.638998 -70.953855 100.154012 9.479118 -20.948431 8.588495 -16.756629 -34.183288 3.735436 40.682908 85.587588 36.715046 0.904519 -18.347958 2.889746 -0.761108 1.821558 -0.326426 -15.166766 -45.400930 15.361405 171.731481 79.867925 165.732298 -2.156061 -16.594465 2.928342 -0.896871 -1.836150 -0.383420
